<svg xmlns="http://www.w3.org/2000/svg" width="1280" height="420" viewBox="0 0 1280 420">
  <rect width="1280" height="420" rx="28" fill="#f8f7f2"/>
  <text x="90" y="126" fill="#777269" font-family="Arial,sans-serif" font-size="18" letter-spacing="4">OPTIMIZATION CASE</text>
  <text x="90" y="188" fill="#211f1a" font-family="Arial,sans-serif" font-size="52" font-weight="700">MOVIMENTA</text>
  <text x="90" y="228" fill="#777269" font-family="Arial,sans-serif" font-size="21">Work · fitness · data-driven scheduling</text>
  <g transform="translate(760 88)">
    <path d="M0 214H410" stroke="#d4d0c6" stroke-width="2"/>
    <g fill="#fff" stroke="#d4d0c6"><rect x="10" y="118" width="82" height="96" rx="15"/><rect x="112" y="72" width="82" height="142" rx="15"/><rect x="214" y="25" width="82" height="189" rx="15"/><rect x="316" y="90" width="82" height="124" rx="15"/></g>
    <g fill="#a6e22e"><rect x="10" y="170" width="82" height="44" rx="0"/><rect x="112" y="131" width="82" height="83"/><rect x="214" y="83" width="82" height="131"/><rect x="316" y="151" width="82" height="63"/></g>
    <path d="M51 151L153 104L255 55L357 122" fill="none" stroke="#211f1a" stroke-width="4"/>
    <g fill="#211f1a"><circle cx="51" cy="151" r="6"/><circle cx="153" cy="104" r="6"/><circle cx="255" cy="55" r="6"/><circle cx="357" cy="122" r="6"/></g>
  </g>
</svg>
